<svg width="747" height="408" fill="none" xmlns="http://www.w3.org/2000/svg">
  <g clip-path="url(#a)">
    <path d="M512 349a5632 5632 0 0 1 227 3c5 2 9 5 8 9h-82c-6 3-12 8-9 12 3 2 9 3 14 3h30c10 0 19 6 16 11-2 4-10 6-17 6l-23 1-19 5-33 4c-86 5-172 5-259 5-35 0-70 0-104-5-19-3-37-8-57-10-23-3-47-2-71-2a2743 2743 0 0 1-133-5c-1-2 3-3 6-4 19-5 39-8 58-9 10-1 20-1 29-3s17-7 17-13c0-2-1-3 1-5s6-2 10-3c45-2 89-3 134-3h47l38-4c17-2 90-13 101-4 8 6-9 7 13 10 18 2 39 1 58 1Z" fill="#47475A"/>
    <path d="M241 320s-26 51-4 51 299 2 307-13c5-10 2-45 0-66a16 16 0 0 0-16-14c-60 3-284 16-283 14 2-3 0-2 0-2s-9 28-4 30Z" fill="#3F3D56"/>
    <path opacity=".1" d="M545 292a16 16 0 0 0-17-14c-60 3-284 16-283 14l1-2-4 13v3l282-15a16 16 0 0 1 17 14 332 332 0 0 1 3 53c6-10 3-45 1-66Z" fill="#000"/>
    <path d="M272 244c-3-1-7-2-7-4l3-3c2-1 2-4 0-5-2-2-7-2-8 0l-2 3c-1 2-7 4-12 5s-10 3-10 6c1 4 8 6 5 9l-4 3 1 3 5 5c2 2 4 4 3 7-1 4-11 6-20 6-3-1-6-1-8 1-2 0-2 2-1 3 1 4 5 7 11 8-6 1-9 6-4 9h-8c-2 2-1 5 2 7l10 4-3 3c2 2 8 1 11 0 4-1 8-3 12-2 4 0 7 3 11 2 3 0 4-2 5-4l4-7c6 1 12-3 10-6 6 1 13-4 11-7 3 3 6 6 7 9l2 4a8 8 0 0 0 7 1c-1 3-2 5 0 7s9 2 9-1c4 2 8 3 13 3 4 0 9-1 10-4 6 2 13 3 20 3l8-2 9 2c3 0 6-2 4-4 7 2 14 2 21 1l18-2c7-1 13 0 19 3 2 1 5 2 7 1 2 0 2-1 3-2 4-3 12-2 18-1s13 3 18 1l6-3c7-2 16 4 25 2l7-2c5 0 8 3 13 4 5 0 10-3 9-6 5 1 10 0 14-2l-2-4c6 0 10-4 7-7 6-1 10-4 12-7 1-3-1-7-6-9l-8-4-1-4c-1-4-5-6-10-7l-7-2c-2 0-3-2-2-3l2-2c4-2-2-5-7-6l12-1 2-11c-4 4-16 3-19-1 4 1 9 0 10-2 2-2 2-5 1-7a3 3 0 0 0-2-3l-3-1 1-3c1-1-3-2-5-3-6-1-9-6-15-6-7 0-8 5-8 8 0 4-3 9-9 9l-7-2-18-8-8-2-12-2h-30l-2 2c-4 4-13 5-19 3l-4-1c-6-2-12 1-17 1-9 2-21-1-27 3l-6 5c-2 1-6 2-8 1l-1 8c-2 2-6 4-11 3-2 0-2-2-1-4 1-1 3-2 2-4l-4-3c-2-1-3-3-1-4h-9c-2 2-2 4-2 6l-3 5c-4 2-12 1-15 3l-1 3c-2 5-12 6-20 6v3c3-1-2-4-3-4Z" fill="#AEDA77"/>
    <path opacity=".1" d="M540 239c1 2 1 5-1 7h7l2-11c-2 2-5 3-8 3v1ZM542 251c0-1-2-3-5-4-2 2-5 2-8 1 2 3 8 4 13 3ZM546 259v1h-12c5 2 11 5 7 7l-2 2c-1 1 0 2 2 3l7 1c5 2 9 4 10 7l1 5 8 4h1l5-5c1-3-1-7-6-9l-8-4-1-4c-1-4-5-6-10-7l-2-1ZM222 309c1-2 3-4 6-4l-8-4-4-1c-2 2-1 5 2 7l4 2ZM241 255l5-1c5-1 11-3 12-6l2-2c1-2 6-2 8 0 2 1 2 3 0 5l-3 3c0 1 4 3 7 3l3 2c8-1 18-2 20-6l1-3c3-2 11-1 15-3l3-6c0-1 0-3 2-5h9c-2 1-1 3 1 4l4 3c1 2-1 3-2 4s-1 3 1 4c5 1 9-1 11-4l1-7c2 1 6 0 8-1 2-2 3-4 6-5 6-4 18-1 27-3 5-1 11-3 17-2l4 2c6 2 15 1 19-3l2-2h30l12 1 8 3 18 8 7 2c6 0 9-5 9-9 0-3 1-8 8-8 6-1 9 4 15 6 2 1 6 2 5 3l-1 2 4-2c2-2 2-5 1-7a3 3 0 0 0-2-3l-3-1 1-3c1-1-3-2-5-3-6-1-9-6-15-6-7 0-8 5-8 8 0 4-3 9-9 9l-7-2-18-8-8-2-12-2h-30l-2 2c-4 4-13 5-19 3l-4-1c-6-2-12 1-17 1-9 2-21-1-27 3l-6 5c-2 1-6 2-8 1l-1 8c-2 2-6 4-11 3-2 0-2-2-1-4 1-1 3-2 2-4l-4-3c-2-1-3-3-1-4h-9c-2 2-2 4-2 6l-3 5c-4 2-12 1-15 3l-1 3c-2 5-12 6-20 6v1l-3-2c-3-1-7-2-7-4l3-3c2-1 2-4 0-5-2-2-7-2-8 0l-2 3c-1 2-7 4-12 5s-10 3-10 6c1 3 8 6 5 9ZM228 291l-4 1 2 1c9 0 19-2 20-6 1-3-1-5-3-7l-2-3c-4 2-10 2-15 2-3-1-6-1-8 1-2 0-2 2-1 3 1 4 5 7 11 8Z" fill="#000"/>
    <path d="M397 269c45 0 82-24 82-54s-37-55-82-55c-46 0-83 25-83 55s37 54 83 54Z" fill="#EA565C"/>
    <path opacity=".2" d="M369 211s-38 4-27-12 25-22 32-17c6 4 9 16 8 16s-17-9-23-2c-5 7 10 15 10 15ZM401 213s31 21 12 26c-18 5-32 0-35-7-2-8 4-19 5-18 1 0 7 18 16 16 8-2 2-17 2-17ZM408 199s3-37 17-24c14 14 17 28 11 34-5 6-18 6-17 5 0-1 12-15 6-22-7-6-17 7-17 7Z" fill="#fff"/>
    <path d="M297 265c46 0 83-24 83-55 0-30-37-54-83-54-45 0-82 24-82 54 0 31 37 55 82 55Z" fill="#EA565C"/>
    <path opacity=".2" d="M269 207s-37 3-26-12c11-16 25-22 31-18 7 5 10 17 8 17-1 0-17-9-22-2-6 7 9 15 9 15ZM302 208s31 22 12 27-33 0-35-8 4-19 4-18c1 1 7 18 16 17 9-2 3-18 3-18ZM309 195s2-38 16-24c14 13 17 28 12 34-6 5-18 6-18 5s12-15 6-22-16 7-16 7Z" fill="#fff"/>
    <path opacity=".1" d="M340 164c18 10 30 25 30 42 0 30-37 54-83 54-16 0-30-3-43-8 15 8 33 13 54 13 45 0 82-24 82-54 0-20-16-37-40-47Z" fill="#000"/>
    <path opacity=".1" d="M440 168c18 10 29 25 29 42 0 30-37 54-82 54-16 0-31-3-43-8 14 8 33 13 53 13 46 0 83-24 83-54 0-20-16-37-40-47Z" fill="#000"/>
    <path d="M247 200s71-76 245-44c137 24 24 67-29 84-15 5-31 7-48 8-60 3-211 6-168-48Z" fill="#714B4F"/>
    <path opacity=".1" d="M463 223c-15 5-31 7-48 8-48 3-157 5-173-23-21 45 117 43 173 40 17-1 33-4 48-9 39-12 110-38 91-61-12 18-61 35-91 45Z" fill="#000"/>
    <path opacity=".1" d="m399 156 19 38M339 170l17 31M433 156l26 38M339 205l174-22M506 163l12 17M305 183l8 16" stroke="#000" stroke-width="2" stroke-miterlimit="10"/>
    <path d="m331 131 160-2c1-2 35-2 41 7 7 9 9 14 0 15S237 299 237 299s-16 2-8-14 102-154 102-154Z" fill="#F6C964"/>
    <path d="M397 197c0 5-28 20-63 20-36 0-64-15-64-20 0-6 28-9 64-9 35 0 63 3 63 9Z" fill="#AEDA77"/>
    <path d="M334 207c35 0 63-5 63-11s-28-10-63-10c-36 0-64 4-64 10s28 11 64 11Z" fill="#AEDA77"/>
    <path d="M474 187c0 6-28 20-63 20-36 0-64-14-64-20s28-9 64-9c35 0 63 3 63 9Z" fill="#AEDA77"/>
    <path d="M411 197c35 0 63-5 63-11s-28-10-63-10c-36 0-64 4-64 10s28 11 64 11Z" fill="#AEDA77"/>
    <path d="M551 177c0 6-28 20-63 20-36 0-64-14-64-20s28-9 64-9c35 0 63 3 63 9Z" fill="#AEDA77"/>
    <path d="M488 187c35 0 63-5 63-11 0-5-28-10-63-10-36 0-64 5-64 10 0 6 28 11 64 11Z" fill="#61AB43"/>
    <path d="M253 180s-27-5-13-26c13-21 18-45 24-51s141-110 247 6c11 12 20 26 27 42 1 3 2 5 4 6 4 5 8 17 0 23s-242 30-289 0Z" fill="#3F3D56"/>
    <path d="m376 91-6 2c-3 0-5-1-5-2s2-2 5-2l6 2ZM332 79l-6 2c-3 0-5-1-5-2l5-1 6 1ZM451 96h-6c-3-1-5-2-4-3h5l5 3ZM370 65h-6l-5-3h6c2 0 4 2 5 3ZM458 76h-5l-5-3h6c2 0 3 2 4 3ZM440 74c-1 2-3 2-5 2l-6-2 6-1 5 1ZM388 63c-2 2-4 2-6 2-3 0-5-1-5-2l5-1 6 1ZM428 63c-1 2-3 2-5 2l-6-2 6-1 5 1ZM413 87l-6 2c-3 0-5-1-5-2s2-2 5-2l6 2ZM368 83l3-5c3-2 5-3 6-2l-3 5-6 2ZM341 76c0-2 1-3 3-5s5-3 5-2c1 1 0 3-3 5l-5 2ZM293 109l3-5c3-2 5-3 6-2l-3 5-6 2ZM399 73c0-2 1-4 3-5l5-3c1 1 0 3-3 5-1 2-3 2-5 3ZM388 95c0-2 1-4 3-5l5-3c1 1 0 3-3 5-1 2-3 2-5 3Z" fill="#F2F2F2"/>
    <path d="M591 334s-9 2-13 7c0 0-7 4-12 3s-13 7-6 10c7 2 47 9 48 7l1-23-18-4ZM656 330s-7 4-11 10c0 0-7 4-11 4-5 0-12 10-5 11 7 2 49 1 49-1 1-2-3-23-3-23l-19-1Z" fill="#F5F5F5"/>
    <path d="M604 47a19 19 0 1 0 0-38 19 19 0 0 0 0 38Z" fill="#FFB9B9"/>
    <path d="M620 31s2 14 5 16l8 5-11 5-20-1s1-9-2-14c-3-4 20-11 20-11ZM658 99s10 24 0 48c-9 24-13 28-13 28l-3-32 3-3s2-9 0-15c-1-6 1-23 1-23l12-3Z" fill="#FFB9B9"/>
    <path d="M587 152s-13 28-11 41c1 13 11 70 11 70s-2 72 2 72 22 7 22 3l4-115 23 52c2 4 15 63 20 63s19-5 18-8c-2-2-16-68-24-84-8-17-6-80-6-80l-13-29-46 15ZM599 20s-12-1-13-4l-2-6 2-2h1l1-3h1V4l3-2 9-1c1-2 16-1 19 1 2 3 15 10 13 16l-9 22c0 3-3 2-4 0l-8-6c0-1-3-13-5-12s-5 8-6 6l-2-8Z" fill="#3F3D56"/>
    <path d="M656 77s-17-25-22-27l-16-4-15 3c-3 2-16 5-16 10s3 53 1 58c-2 4-9 48-6 47 4-1 1-12 16-12 14 0 22-9 28 1 5 11 21 19 21 19l1-10c2-6-3-20-3-20s0-33 2-37l9-28Z" fill="#AEDA77"/>
    <path d="m650 76 6 1s0 8 2 11c1 2 4 15 3 16l-17 2-1-19 7-11Z" fill="#AEDA77"/>
    <path d="M582 91s-4 27-6 31c-2 3-12 50-12 50s-18 24-9 23c8 0 17-22 17-22s26-47 26-52l6-30h-22Z" fill="#FFB9B9"/>
    <path d="m594 54-7 3s-10 34-8 37c3 3 28-1 28-2s-5-38-13-38Z" fill="#AEDA77"/>
    <path d="M67 281c0 41 25 74 57 74l-57-74Z" fill="#46455B"/>
    <path d="M124 355c0-42 28-75 63-75l-63 75ZM87 285c0 38 17 70 37 70l-37-70Z" fill="#AEDA77"/>
    <path d="M124 355c0-53 33-96 73-96l-73 96Z" fill="#46455B"/>
    <path d="M112 355s8 0 10-2c3-2 13-4 13-1 1 3 13 14 3 14-9 0-21-1-23-3-3-1-3-8-3-8Z" fill="#A8A8A8"/>
    <path opacity=".2" d="M139 365c-10 0-22-1-24-3-2-1-3-5-3-7 0 0 0 7 3 8 2 2 14 3 23 3 3 0 4-1 4-2l-3 1Z" fill="#000"/>
  </g>
  <defs>
    <clipPath id="a">
      <path fill="#fff" d="M0 0h747v408H0z"/>
    </clipPath>
  </defs>
</svg>
