<svg width="50" height="50" viewBox="0 0 50 50" fill="none" xmlns="http://www.w3.org/2000/svg">
<g clip-path="url(#clip0_143_157)">
<path d="M32.4511 13.3022H17.5488C15.1702 13.3022 13.235 15.2375 13.235 17.6161V32.5184C13.235 34.897 15.1702 36.8327 17.5488 36.8327H32.4511C34.8297 36.8327 36.7655 34.8975 36.7655 32.5184V17.6161C36.7655 15.2375 34.8303 13.3022 32.4511 13.3022ZM25 32.8136C20.729 32.8136 17.2541 29.3387 17.2541 25.0672C17.2541 20.7963 20.729 17.3214 25 17.3214C29.2714 17.3214 32.7463 20.7963 32.7463 25.0672C32.7463 29.3381 29.2709 32.8136 25 32.8136ZM32.9953 18.9229C31.9843 18.9229 31.1621 18.1007 31.1621 17.0902C31.1621 16.0797 31.9843 15.2575 32.9953 15.2575C34.0058 15.2575 34.828 16.0797 34.828 17.0902C34.828 18.1007 34.0058 18.9229 32.9953 18.9229Z" fill="#F2F2F2"/>
<path d="M25 20.5947C22.5345 20.5947 20.5269 22.6012 20.5269 25.0668C20.5269 27.5334 22.5345 29.5404 25 29.5404C27.4666 29.5404 29.4726 27.5334 29.4726 25.0668C29.4726 22.6018 27.4661 20.5947 25 20.5947Z" fill="#F2F2F2"/>
<path d="M25 0C11.1934 0 0 11.1934 0 25C0 38.8066 11.1934 50 25 50C38.8066 50 50 38.8066 50 25C50 11.1934 38.8066 0 25 0ZM40.0382 32.5185C40.0382 36.7026 36.6352 40.1056 32.4511 40.1056H17.5489C13.3654 40.1056 9.96179 36.7026 9.96179 32.5185V17.6163C9.96179 13.4328 13.3654 10.0292 17.5489 10.0292H32.4511C36.6352 10.0292 40.0382 13.4328 40.0382 17.6163V32.5185Z" fill="#F2F2F2"/>
</g>
<defs>
<clipPath id="clip0_143_157">
<rect width="50" height="50" fill="white"/>
</clipPath>
</defs>
</svg>
